<svg id="visual" viewBox="0 0 675 900" width="675" height="900" xmlns="http://www.w3.org/2000/svg" xmlns:xlink="http://www.w3.org/1999/xlink" version="1.1"><rect x="0" y="0" width="675" height="900" fill="#002233"></rect><path d="M0 137L16 156.7C32 176.3 64 215.7 96.2 243C128.3 270.3 160.7 285.7 192.8 278.7C225 271.7 257 242.3 289.2 218.3C321.3 194.3 353.7 175.7 385.8 179.8C418 184 450 211 482.2 206C514.3 201 546.7 164 578.8 180.2C611 196.3 643 265.7 659 300.3L675 335L675 0L659 0C643 0 611 0 578.8 0C546.7 0 514.3 0 482.2 0C450 0 418 0 385.8 0C353.7 0 321.3 0 289.2 0C257 0 225 0 192.8 0C160.7 0 128.3 0 96.2 0C64 0 32 0 16 0L0 0Z" fill="#692ac9" stroke-linecap="round" stroke-linejoin="miter"></path></svg>